<svg class="img-fluid" id="outputsvg" xmlns="http://www.w3.org/2000/svg" style="transform: none; transform-origin: 50% 50%; cursor: move; max-height: none;" width="1366" height="1366" viewBox="0 0 13660 13660">
<g id="l7M6XINJB6JU0m1x1IJej7U" fill="currentColor" style="transform: none;"><g style="transform: none;">
<path id="pXVAP6WhS" d="M6560 12563 c-840 -39 -1658 -254 -2384 -626 -919 -471 -1685 -1170 -2245 -2051 -430 -674 -702 -1386 -835 -2186 -60 -360 -81 -672 -73 -1070 12 -545 59 -894 187 -1385 230 -886 697 -1741 1319 -2413 379 -411 718 -689 1231 -1013 222 -140 615 -338 885 -445 720 -284 1403 -414 2185 -414 482 0 920 49 1327 147 l153 37 0 35 c0 43 54 -15 -576 610 -462 458 -788 780 -1629 1610 -403 398 -1313 1290 -1419 1392 l-69 66 28 49 c33 56 109 138 247 266 l97 89 463 -458 c255 -252 618 -612 808 -799 190 -188 359 -354 375 -369 17 -14 149 -144 295 -288 146 -145 555 -548 910 -897 355 -349 743 -732 863 -850 l218 -215 52 1 c57 0 184 54 452 188 l140 71 3 39 c4 45 82 -36 -684 711 -203 198 -468 457 -589 577 -121 119 -250 245 -286 280 -37 34 -249 241 -470 458 -222 217 -483 471 -579 565 -96 93 -265 258 -375 365 -110 107 -220 215 -245 240 -409 398 -850 834 -850 840 0 4 84 85 187 181 103 96 301 282 441 414 139 132 257 242 263 243 5 2 9 -181 9 -473 l0 -477 23 -27 c25 -30 553 -552 1337 -1321 294 -289 670 -658 835 -821 165 -162 464 -457 665 -654 201 -198 464 -458 585 -577 268 -265 240 -255 406 -137 230 163 455 357 698 599 133 133 141 143 141 180 0 23 -6 42 -14 47 -8 4 -153 143 -323 309 -169 165 -373 363 -453 440 -142 136 -292 282 -655 634 -99 96 -241 233 -315 305 -74 71 -211 204 -305 295 -93 91 -231 224 -305 295 -74 71 -223 215 -330 320 -107 105 -258 251 -335 325 -173 166 -290 279 -807 779 l-408 393 0 365 0 365 171 -163 c405 -388 611 -587 986 -948 219 -212 459 -443 533 -515 74 -71 194 -186 265 -255 72 -69 193 -187 270 -261 152 -146 384 -371 620 -600 83 -80 272 -262 420 -405 149 -142 405 -390 570 -549 165 -160 354 -343 420 -407 66 -64 167 -161 225 -217 94 -91 109 -101 142 -102 35 0 41 5 94 76 50 69 147 214 232 350 22 35 32 63 32 91 0 44 8 36 -530 553 -140 135 -322 310 -405 390 -82 80 -199 192 -260 250 -60 58 -164 157 -230 220 -66 63 -174 167 -240 230 -327 313 -603 579 -735 706 -80 77 -183 176 -230 219 -47 44 -283 269 -525 500 -813 777 -1318 1259 -1440 1374 -66 63 -189 182 -272 264 l-153 149 0 1943 0 1943 -31 6 c-30 6 -58 6 -199 -1z m-1365 -3600 l1040 -1038 -2 -148 -2 -148 -53 -48 c-29 -26 -119 -104 -199 -172 -270 -230 -603 -515 -834 -715 -127 -110 -275 -237 -330 -284 -54 -47 -119 -103 -144 -126 -25 -22 -104 -89 -176 -149 -71 -59 -137 -114 -145 -121 -14 -12 -162 132 -1113 1081 l-1097 1094 0 387 c0 213 2 385 4 383 3 -2 493 -491 1089 -1086 1027 -1026 1085 -1083 1119 -1083 29 0 52 14 140 88 115 96 248 209 372 317 45 39 187 160 315 270 339 288 321 271 321 315 0 36 -34 71 -1092 1128 l-1091 1092 419 0 419 0 1040 -1037z m-2740 -1968 c77 -72 173 -162 214 -202 l74 -72 -6 -605 -6 -604 192 -179 c411 -382 482 -449 509 -476 l28 -28 0 -425 0 -426 -37 32 c-21 18 -90 81 -153 139 -63 59 -142 131 -175 161 -59 53 -213 194 -349 321 -79 73 -240 219 -352 319 -41 36 -118 106 -173 155 l-99 90 -1 1059 -1 1060 98 -95 c53 -52 160 -153 237 -224z m2051 -3530 c6 -5 90 -87 185 -180 96 -94 237 -231 314 -305 485 -467 725 -700 725 -705 0 -8 -108 -25 -198 -31 -204 -14 -487 49 -697 153 -324 161 -559 411 -665 708 -87 245 -89 405 -8 622 l20 55 156 -154 c86 -84 161 -157 168 -163z"></path><path id="pQ1Sv8FYu" d="M7380 10692 l0 -1840 133 -129 c72 -71 479 -461 902 -865 1550 -1480 1612 -1539 1900 -1817 72 -69 178 -171 236 -226 157 -150 555 -532 714 -685 77 -74 194 -187 260 -251 313 -301 363 -349 438 -422 75 -74 81 -78 120 -75 l40 3 60 145 c68 165 207 566 230 661 8 35 25 100 36 144 73 273 141 709 161 1025 38 625 -20 1279 -165 1835 -81 313 -220 714 -330 950 -20 44 -51 109 -67 145 -91 196 -333 612 -462 795 -227 321 -388 517 -630 764 -310 316 -746 665 -1079 863 -6 4 -57 35 -111 69 -285 176 -823 416 -1181 525 -44 14 -100 31 -125 39 -253 78 -749 172 -957 182 l-123 6 0 -1841z m930 1072 c226 -170 494 -366 508 -371 9 -4 12 -234 13 -1102 l1 -1096 72 -65 c108 -98 332 -306 511 -474 88 -83 189 -178 225 -211 36 -33 106 -98 155 -145 80 -76 346 -325 860 -804 93 -88 204 -191 245 -230 42 -39 138 -129 215 -201 77 -71 180 -169 230 -216 77 -73 168 -157 211 -194 6 -5 53 -50 103 -99 l91 -89 0 -433 c0 -239 -3 -434 -6 -434 -3 0 -135 123 -292 273 -317 301 -595 564 -807 762 -151 141 -665 627 -835 789 -58 56 -182 173 -275 261 -94 89 -305 289 -470 446 -271 258 -387 368 -780 739 -67 63 -125 124 -128 135 -4 11 -7 663 -7 1448 0 1140 3 1427 13 1421 6 -5 73 -54 147 -110z"></path></g></g>
<g id="l38xHg7Y3txl0HZ3qH7P3wQ" fill="none" style="transform: none;">
<g style="transform: none;"><path id="prB9AwyU9" d="M0 6830 l0 -6830 6830 0 6830 0 0 6830 0 6830 -6830 0 -6830 0 0 -6830z m6729 5704 l31 -6 0 -1943 0 -1943 153 -149 c83 -82 206 -201 272 -264 122 -115 627 -597 1440 -1374 242 -231 478 -456 525 -500 47 -43 150 -142 230 -219 132 -127 408 -393 735 -706 66 -63 174 -167 240 -230 66 -63 170 -162 230 -220 61 -58 178 -170 260 -250 83 -80 265 -255 405 -390 398 -382 530 -513 530 -523 0 -33 -312 -492 -330 -485 -11 4 -174 161 -755 724 -165 159 -421 407 -570 549 -148 143 -337 325 -420 405 -236 229 -468 454 -620 600 -77 74 -198 192 -270 261 -71 69 -191 184 -265 255 -74 72 -314 303 -533 515 -219 211 -480 462 -580 558 -100 96 -284 273 -409 394 l-228 219 0 -425 0 -425 408 -393 c517 -500 634 -613 807 -779 77 -74 228 -220 335 -325 107 -105 256 -249 330 -320 74 -71 212 -204 305 -295 94 -91 231 -224 305 -295 74 -72 216 -209 315 -305 363 -352 513 -498 655 -634 80 -77 283 -275 452 -439 169 -165 316 -305 325 -312 16 -12 14 -17 -26 -61 -184 -206 -588 -558 -839 -731 l-83 -57 -222 220 c-122 121 -386 381 -587 579 -201 197 -500 492 -665 654 -165 163 -541 532 -835 821 -784 769 -1312 1291 -1337 1321 l-23 27 0 506 c0 278 -2 506 -3 506 -5 0 -115 -103 -387 -360 -108 -102 -287 -270 -398 -373 -111 -104 -202 -192 -202 -197 0 -6 487 -488 879 -870 26 -25 136 -133 246 -240 110 -107 279 -272 375 -365 96 -94 357 -348 579 -565 221 -217 433 -424 470 -458 36 -35 165 -161 286 -280 121 -120 386 -379 589 -577 745 -727 694 -674 671 -691 -50 -39 -512 -254 -551 -257 -17 -2 -77 52 -241 213 -120 118 -508 501 -863 850 -355 349 -764 752 -910 897 -146 144 -278 274 -295 288 -16 15 -185 181 -375 369 -190 188 -560 554 -823 814 l-479 473 -126 -119 c-70 -66 -147 -141 -172 -168 -44 -47 -120 -162 -120 -181 0 -5 35 -43 78 -84 114 -109 1012 -990 1427 -1400 1889 -1865 2196 -2170 2203 -2188 4 -11 -286 -78 -479 -110 -338 -57 -625 -81 -969 -81 -750 0 -1446 134 -2155 414 -270 107 -663 305 -885 445 -513 324 -852 602 -1231 1013 -622 672 -1089 1527 -1319 2413 -125 482 -174 835 -186 1360 -14 549 44 1025 195 1610 250 965 814 1928 1553 2651 415 406 888 746 1404 1011 726 372 1544 587 2384 626 36 2 75 4 86 5 12 1 36 -1 53 -4z m1046 -74 c216 -36 514 -102 655 -145 25 -8 81 -25 125 -39 358 -109 896 -349 1181 -525 54 -34 105 -65 111 -69 64 -38 192 -123 304 -202 589 -419 1113 -965 1496 -1560 99 -153 311 -531 371 -660 16 -36 47 -101 67 -145 110 -236 249 -637 330 -950 143 -549 201 -1181 165 -1775 -20 -316 -88 -752 -161 -1025 -11 -44 -28 -109 -36 -144 -40 -168 -275 -800 -300 -808 -6 -2 -47 31 -91 74 -74 73 -124 121 -437 422 -66 64 -183 177 -260 251 -159 153 -557 535 -714 685 -58 55 -164 157 -236 226 -288 278 -350 337 -1900 1817 -423 404 -830 794 -902 865 l-133 129 0 1811 0 1810 93 -6 c50 -4 173 -20 272 -37z"></path><path id="p17uJD2bFt" d="M3250 10018 c0 -6 500 -511 1110 -1121 611 -611 1110 -1113 1110 -1117 0 -4 -19 -25 -43 -46 -46 -42 -532 -459 -656 -563 -42 -35 -105 -90 -141 -121 -87 -76 -252 -214 -268 -224 -9 -6 -346 325 -1128 1105 -613 613 -1120 1116 -1126 1118 -7 2 -9 -3 -5 -13 4 -10 7 -211 7 -447 l0 -430 1107 -1104 c609 -608 1111 -1105 1115 -1105 8 0 281 225 369 304 25 23 90 79 144 126 55 47 203 174 330 284 231 200 564 485 834 715 80 68 170 146 199 173 l54 48 1 178 2 177 -1040 1038 -1040 1037 -468 0 c-349 0 -467 -3 -467 -12z"></path><path id="pgbdgOeNs" d="M2091 6278 l1 -1113 99 -90 c55 -49 132 -119 173 -155 113 -101 274 -247 352 -319 149 -139 290 -269 359 -331 40 -36 147 -134 238 -217 91 -84 168 -153 171 -153 3 0 6 216 6 480 l0 479 -28 28 c-27 27 -99 94 -509 476 l-191 178 6 605 5 605 -74 72 c-41 40 -137 130 -214 202 -195 181 -359 338 -368 353 -4 6 -12 12 -17 12 -6 0 -10 -416 -9 -1112z"></path><path id="pLi7fbnl9" d="M4151 3801 c-12 -22 -32 -79 -46 -127 -91 -315 8 -687 262 -977 277 -317 735 -506 1172 -483 69 3 146 11 171 16 25 6 55 12 68 15 12 3 22 9 22 14 0 13 -126 137 -635 626 -255 244 -348 335 -793 771 -101 98 -187 180 -192 182 -5 2 -18 -15 -29 -37z"></path><path id="pPWheZ8Qz" d="M8120 10473 c0 -813 3 -1487 7 -1498 3 -11 61 -72 128 -135 393 -371 509 -481 780 -739 165 -157 376 -357 470 -446 93 -88 217 -205 275 -261 137 -132 838 -793 915 -864 136 -126 1027 -969 1052 -996 12 -13 25 -24 28 -24 3 0 5 222 5 494 0 407 -2 497 -14 508 -7 7 -54 51 -102 98 -49 47 -114 107 -144 134 -30 27 -96 88 -145 135 -50 47 -153 145 -230 216 -77 72 -173 162 -215 201 -41 39 -152 142 -245 230 -514 479 -780 728 -860 804 -49 47 -119 112 -155 145 -36 33 -137 128 -225 211 -179 168 -403 376 -511 474 l-72 65 -1 1096 c-1 868 -4 1098 -13 1102 -14 5 -283 202 -544 398 -94 71 -174 129 -177 129 -4 0 -7 -665 -7 -1477z"></path></g></g></svg>
